<svg width="106" height="85" viewBox="0 0 106 85" fill="none" xmlns="http://www.w3.org/2000/svg">
<path d="M6.4011 68V17.0909H24.1994C27.7458 17.0909 30.6708 17.7041 32.9743 18.9304C35.2778 20.1401 36.993 21.7725 38.1199 23.8274C39.2467 25.8658 39.8102 28.1278 39.8102 30.6136C39.8102 32.8011 39.4208 34.6075 38.6419 36.0327C37.8796 37.4579 36.8687 38.5848 35.6092 39.4134C34.3663 40.242 33.0157 40.8551 31.5574 41.2528V41.75C33.1151 41.8494 34.6812 42.3963 36.2555 43.3906C37.8298 44.3849 39.1473 45.8101 40.2079 47.6662C41.2685 49.5223 41.7988 51.7926 41.7988 54.4773C41.7988 57.0294 41.2188 59.3246 40.0588 61.3629C38.8987 63.4013 37.0675 65.017 34.5652 66.2102C32.0628 67.4034 28.8064 68 24.796 68H6.4011ZM12.5659 62.5312H24.796C28.823 62.5312 31.6816 61.7524 33.372 60.1946C35.0789 58.6203 35.9324 56.7145 35.9324 54.4773C35.9324 52.7538 35.4932 51.1629 34.6149 49.7045C33.7366 48.2296 32.4854 47.053 30.8613 46.1747C29.2373 45.2798 27.3149 44.8324 25.0943 44.8324H12.5659V62.5312ZM12.5659 39.4631H24.0005C25.8566 39.4631 27.5304 39.0985 29.0218 38.3693C30.5299 37.6402 31.7231 36.6127 32.6014 35.2869C33.4963 33.9612 33.9437 32.4034 33.9437 30.6136C33.9437 28.3764 33.1648 26.4789 31.6071 24.9212C30.0493 23.3468 27.5801 22.5597 24.1994 22.5597H12.5659V39.4631Z" fill="#4BB790"/>
<g clip-path="url(#clip0_9_31)">
<path d="M46 33.9998C46 37.3125 48.7 39.9987 52.031 39.9987C55.3619 39.9987 58.0619 37.3125 58.0619 33.9998C58.0619 30.687 55.3619 28.0013 52.031 28.0013C48.7 28.0013 46 30.687 46 33.9998V33.9998Z" fill="#0063DC"/>
<path d="M59.9286 33.9984C59.9286 37.3112 62.6291 39.9974 65.9601 39.9974C69.2905 39.9974 71.9905 37.3112 71.9905 33.9984C71.9905 30.6856 69.2905 28 65.9601 28C62.6291 28 59.9286 30.6856 59.9286 33.9984Z" fill="#FF0084"/>
</g>
<path d="M104.813 31.4186C103.93 27.6589 100.316 25.3727 96.5382 26.152C93.6559 26.7465 91.2683 29.2176 91.0204 32.4803C90.9189 33.8215 91.1972 35.0891 91.8575 36.2657C91.9258 36.3876 91.9363 36.4979 91.8989 36.6309C91.7461 37.1787 91.6312 37.6168 91 39.991C91.3774 39.9059 92.7051 39.5366 94.3384 39.1102C94.4283 39.0868 94.5496 39.0927 94.6301 39.1353C96.1666 39.9537 97.7854 40.2022 99.4893 39.8335C103.27 39.0163 105.714 35.2548 104.813 31.4186V31.4186ZM99.2496 29.8785C99.7471 29.8762 100.125 30.2501 100.126 30.7448C100.126 31.2389 99.7477 31.6193 99.2554 31.6193C98.7654 31.6187 98.3862 31.236 98.3874 30.7419C98.3886 30.256 98.7636 29.8809 99.2496 29.8785ZM95.7052 30.5179C96.176 30.5249 96.5726 30.9228 96.579 31.3935C96.5855 31.8637 96.1742 32.2785 95.6994 32.2808C95.2263 32.2826 94.8162 31.8713 94.8185 31.3964C94.8203 30.9204 95.2339 30.5109 95.7052 30.5179V30.5179ZM102.582 33.4131C100.363 36.5154 96.8211 36.9535 93.8881 35.0185C93.6157 34.8388 93.5515 34.5122 93.7242 34.2537C93.8945 33.9994 94.2259 33.9352 94.4954 34.1079C97.1886 35.834 100.046 35.176 101.702 32.7936C101.903 32.5042 102.21 32.4342 102.474 32.6145C102.742 32.7982 102.789 33.1255 102.582 33.4131V33.4131Z" fill="#FEBD09"/>
<path d="M47.23 65V46.31H48.88L53.5 55.46L58.21 46.28H59.8V65H57.82V50.9L53.77 58.43H52.96L49.18 50.99V65H47.23ZM62.77 65V46.28H74.23V48.14H64.75V54.29H72.58V56.21H64.75V63.14H74.14V65H62.77ZM77.68 65V46.31H83.2C84.68 46.31 85.87 46.53 86.77 46.97C87.69 47.41 88.36 48.03 88.78 48.83C89.2 49.63 89.41 50.57 89.41 51.65C89.41 52.35 89.25 53.05 88.93 53.75C88.63 54.45 88.19 55.06 87.61 55.58C87.05 56.1 86.38 56.46 85.6 56.66L89.92 65H87.58L83.44 56.75H79.81V65H77.68ZM79.81 54.89H83.44C84.78 54.89 85.75 54.6 86.35 54.02C86.95 53.42 87.25 52.63 87.25 51.65C87.25 51.03 87.12 50.47 86.86 49.97C86.6 49.45 86.19 49.04 85.63 48.74C85.07 48.44 84.34 48.29 83.44 48.29H79.81V54.89ZM92.5 46.31H94.54L102.4 60.17V46.31H104.38H104.68V46.52C104.56 46.64 104.48 46.77 104.44 46.91C104.42 47.05 104.41 47.29 104.41 47.63V65H102.76L94.51 50.3V65H92.5V46.31Z" fill="#4BB790"/>
<defs>
<clipPath id="clip0_9_31">
<rect width="26" height="12" fill="white" transform="translate(46 28)"/>
</clipPath>
</defs>
</svg>
